<svg width="200" height="200" viewBox="0 0 200 200" fill="none" xmlns="http://www.w3.org/2000/svg">
<g clip-path="url(#clip0_4788_7584)">
<path d="M126.512 197.076H123.588C117.129 197.076 111.892 191.84 111.892 185.38C111.892 178.92 117.129 173.684 123.588 173.684H126.512H73.8809H76.8047C83.2645 173.684 88.5008 178.921 88.5008 185.38C88.5008 191.84 83.2645 197.076 76.8047 197.076H73.8809" fill="#2C3E50"/>
<path d="M166.714 161.255H32.2109V174.413H166.714V161.255Z" fill="#94A5A6"/>
<path d="M114.083 190.495H85.5762V196.343H114.083V190.495Z" fill="#566573"/>
<path d="M166.714 168.565H32.2109V174.413H166.714V168.565Z" fill="#566573"/>
<path d="M167.446 88.8891H32.9434V163.45H167.446V88.8891Z" fill="white"/>
<path d="M62.9141 161.257L109.698 89.6199L130.166 88.8891L81.1891 161.988L62.9141 161.257Z" fill="#DADADA"/>
<path d="M53.4113 161.988H32.9434V88.8891H99.4641L53.4113 161.988Z" fill="#DADADA"/>
<path d="M170.371 94.7367H164.523V91.8129H126.512V85.9648H170.371V94.7367Z" fill="black"/>
<path d="M50.3813 46.7836C47.1516 46.7836 44.5332 44.1652 44.5332 40.9356V14.6199C44.5332 11.3902 47.1516 8.77188 50.3813 8.77188C53.6109 8.77188 56.2293 11.3902 56.2293 14.6199V40.9356C56.2293 44.1652 53.6109 46.7836 50.3813 46.7836Z" fill="#F42222"/>
<path d="M65.9832 17.5437V11.6961H58.6504C58.6305 11.6398 58.6102 11.5848 58.5895 11.5293L63.7684 6.35L59.6336 2.21445L54.8008 7.04727C54.3281 6.77031 53.8285 6.53672 53.3051 6.35078V0H47.457V6.35078C47.1645 6.4543 46.8789 6.57227 46.6012 6.70508L42.1109 2.21445L37.9762 6.34961L42.4672 10.8406C42.3344 11.118 42.2164 11.4039 42.1129 11.6965H35.7617V17.5445H41.6098V20.4684H35.7617V26.3164H41.6098V29.2398H35.7617V35.0879H41.6098V38.0117H35.7617V43.8598H42.1125C42.2371 44.2113 42.3844 44.5527 42.5512 44.882L37.9762 49.4566L42.1109 53.5914L46.7746 48.9281C46.9977 49.0289 47.2254 49.1219 47.4578 49.2043V55.8062H53.3059V49.2047C53.7707 49.0398 54.2168 48.8371 54.6418 48.6L59.6336 53.5918L63.7684 49.457L58.518 44.2066C58.5645 44.0922 58.6086 43.9766 58.65 43.8598H65.9828V38.0117H59.1527V35.0879H65.9828V29.2398H59.1527V26.316H65.9828V20.468H59.1527V17.5441H65.9832V17.5437ZM53.3055 40.9355C53.3055 42.548 51.9941 43.8594 50.3816 43.8594C48.7691 43.8594 47.4578 42.548 47.4578 40.9355V14.6199C47.4578 13.0074 48.7691 11.6961 50.3816 11.6961C51.9941 11.6961 53.3055 13.0074 53.3055 14.6199V40.9355Z" fill="black"/>
<path d="M9.41406 138.446C9.41406 135.216 12.0324 132.598 15.2621 132.598H41.5777C44.8074 132.598 47.4258 135.216 47.4258 138.446C47.4258 141.676 44.8074 144.294 41.5777 144.294H15.2621C12.0324 144.294 9.41406 141.676 9.41406 138.446Z" fill="#F42222"/>
<path d="M56.1973 141.37V135.522H49.8465C49.743 135.229 49.625 134.944 49.4922 134.666L53.9828 130.175L49.848 126.04L45.3574 130.531C45.0801 130.398 44.7941 130.28 44.5016 130.177V123.826H38.6535V129.674H35.7297V123.826H29.8816V129.674H26.9578V123.826H21.1094V129.674H18.1855V123.826H12.3375V130.177C11.9859 130.302 11.6445 130.449 11.3152 130.616L6.74023 126.041L2.60508 130.176L7.26875 134.839C7.16797 135.062 7.075 135.29 6.99258 135.523H0.390625V141.371H6.99258C7.15742 141.836 7.36016 142.282 7.59727 142.707L2.60508 147.698L6.73984 151.833L11.9902 146.583C12.1047 146.629 12.2203 146.673 12.3371 146.715V154.048H18.1852V147.218H21.109V154.048H26.957V147.218H29.8809V154.048H35.7289V147.218H38.6527V154.048H44.5008V146.715C44.5566 146.695 44.6121 146.675 44.6676 146.654L49.8465 151.833L53.9813 147.698L49.1484 142.865C49.4254 142.393 49.659 141.893 49.8449 141.37L56.1973 141.37ZM41.5773 141.37H15.2617C13.6492 141.37 12.3379 140.059 12.3379 138.446C12.3379 136.834 13.6492 135.522 15.2617 135.522H41.5773C43.1898 135.522 44.5012 136.834 44.5012 138.446C44.5012 140.059 43.1895 141.37 41.5773 141.37Z" fill="black"/>
<path d="M152.827 59.3984C149.597 59.3984 146.979 56.7801 146.979 53.5504V27.2348C146.979 24.0051 149.597 21.3867 152.827 21.3867C156.056 21.3867 158.675 24.0051 158.675 27.2348V53.5504C158.675 56.7801 156.056 59.3984 152.827 59.3984Z" fill="#F42222"/>
<path d="M168.429 30.1582V24.3102H161.096C161.076 24.2543 161.056 24.1988 161.035 24.1434L166.214 18.9641L162.079 14.8293L157.246 19.6621C156.774 19.3852 156.274 19.1512 155.751 18.9652V12.6145H149.903V18.9652C149.61 19.0688 149.324 19.1867 149.047 19.3195L144.556 14.8289L140.421 18.9637L144.912 23.4547C144.779 23.732 144.661 24.0176 144.558 24.3102H138.207V30.1582H144.055V33.082H138.207V38.9301H144.055V41.8539H138.207V47.702H144.055V50.6258H138.207V56.4738H144.558C144.682 56.8254 144.83 57.1664 144.996 57.4961L140.421 62.0711L144.557 66.2059L149.22 61.5426C149.443 61.6434 149.671 61.7363 149.903 61.8188V68.4207H155.751V61.8188C156.216 61.6539 156.662 61.4512 157.087 61.2141L162.079 66.2059L166.214 62.0711L160.963 56.8203C161.009 56.7059 161.054 56.5902 161.095 56.4738H168.428V50.6258H161.598V47.702H168.429V41.8539H161.598V38.9301H168.429V33.0824H161.598V30.1586L168.429 30.1582ZM155.751 53.55C155.751 55.1625 154.439 56.4738 152.827 56.4738C151.214 56.4738 149.903 55.1625 149.903 53.55V27.2344C149.903 25.6219 151.214 24.3106 152.827 24.3106C154.439 24.3106 155.751 25.6219 155.751 27.2344V53.55Z" fill="black"/>
<path d="M152.828 115.205C152.828 111.975 155.446 109.357 158.676 109.357H184.992C188.221 109.357 190.84 111.975 190.84 115.205C190.84 118.434 188.221 121.053 184.992 121.053H158.676C155.446 121.053 152.828 118.434 152.828 115.205Z" fill="#F42222"/>
<path d="M199.611 118.129V112.28H193.26C193.157 111.988 193.039 111.702 192.906 111.425L197.397 106.934L193.262 102.799L188.771 107.29C188.493 107.157 188.208 107.039 187.915 106.936V100.585H182.067V106.433H179.143V100.585H173.295V106.433H170.371V100.585H164.523V106.433H161.6V100.585H155.752V106.936C155.4 107.06 155.059 107.207 154.729 107.374L150.154 102.799L146.019 106.934L150.683 111.598C150.582 111.821 150.489 112.048 150.407 112.28H143.805V118.129H150.407C150.571 118.593 150.774 119.039 151.011 119.464L146.02 124.456L150.154 128.591L155.404 123.341C155.519 123.387 155.634 123.431 155.751 123.473V130.805H161.599V123.977H164.523V130.807H170.371V123.977H173.295V130.807H179.143V123.977H182.067V130.807H187.915V123.474C187.971 123.454 188.026 123.434 188.082 123.413L193.261 128.592L197.396 124.457L192.563 119.625C192.84 119.152 193.074 118.652 193.26 118.129H199.611V118.129ZM184.991 118.129H158.675C157.063 118.129 155.752 116.817 155.752 115.205C155.752 113.592 157.063 112.281 158.675 112.281H184.991C186.604 112.281 187.915 113.592 187.915 115.205C187.915 116.817 186.604 118.129 184.991 118.129Z" fill="black"/>
<path d="M35.8676 118.129H30.0195V85.9648H41.7152V91.8129H35.8676V118.129Z" fill="black"/>
<path d="M122.125 141.52H62.1836V135.672H122.125C122.931 135.672 123.587 135.016 123.587 134.21C123.587 133.404 122.931 132.748 122.125 132.748H106.043C101.206 132.748 97.2711 128.813 97.2711 123.976H103.119C103.119 125.589 104.43 126.9 106.043 126.9H122.125C126.156 126.9 129.435 130.179 129.435 134.21C129.435 138.24 126.156 141.52 122.125 141.52Z" fill="#FBD989"/>
<path d="M103.12 112.281H97.2715V118.129H103.12V112.281Z" fill="white"/>
<path d="M138.207 112.281H108.967V118.129H138.207V112.281Z" fill="#FBD989"/>
<path d="M103.12 106.433H97.2715V93.275C97.2715 89.2441 100.551 85.9652 104.581 85.9652H113.353C114.159 85.9652 114.815 85.3094 114.815 84.5031C114.815 80.4723 118.095 77.1934 122.125 77.1934H146.979C148.591 77.1934 149.903 75.882 149.903 74.2695H155.751C155.751 79.1066 151.816 83.0414 146.979 83.0414H122.125C121.319 83.0414 120.663 83.6973 120.663 84.5035C120.663 88.5344 117.384 91.8133 113.353 91.8133H104.581C103.775 91.8133 103.119 92.4691 103.119 93.2754V106.433H103.12Z" fill="#FBD989"/>
<path d="M91.4238 118.129H72.418C68.3871 118.129 65.1082 114.849 65.1082 110.819C65.1082 106.788 68.3875 103.509 72.418 103.509H81.1898C81.9961 103.509 82.652 102.853 82.652 102.047C82.652 101.241 81.9961 100.585 81.1898 100.585H54.8742C50.8434 100.585 47.5645 97.3055 47.5645 93.275V64.0352H53.4125V93.275C53.4125 94.0813 54.0684 94.7371 54.8746 94.7371H81.1902C85.2211 94.7371 88.5 98.0164 88.5 102.047C88.5 106.078 85.2207 109.357 81.1902 109.357H72.4184C71.6121 109.357 70.9562 110.013 70.9562 110.819C70.9562 111.625 71.6121 112.281 72.4184 112.281H91.4242V118.129H91.4238Z" fill="#FBD989"/>
<path d="M91.4234 85.9648H59.2598V91.8129H91.4234V85.9648Z" fill="black"/>
<path d="M123.587 176.608H170.37V137.134H164.522V159.064H30.0195V176.608H76.8031C81.6402 176.608 85.575 180.543 85.575 185.38C85.575 190.217 81.6402 194.152 76.8031 194.152H68.0313V200H132.359V194.152H123.587C118.75 194.152 114.815 190.217 114.815 185.38C114.815 180.543 118.75 176.608 123.587 176.608ZM88.4914 194.152C90.3312 191.707 91.423 188.669 91.423 185.38C91.423 182.091 90.3309 179.054 88.4914 176.608H97.2711V182.456H103.119V176.608H111.899C110.059 179.054 108.967 182.091 108.967 185.38C108.967 188.669 110.059 191.707 111.899 194.152H88.4914ZM76.8031 170.76H73.8793H35.8676V164.912H164.523V170.76H126.511H123.587H76.8031Z" fill="black"/>
</g>
<defs>
<clipPath id="clip0_4788_7584">
<rect width="200" height="200" fill="white"/>
</clipPath>
</defs>
</svg>
